<?xml version="1.0" encoding="UTF-8" standalone="no" ?>
<!DOCTYPE svg PUBLIC "-//W3C//DTD SVG 1.1//EN" "http://www.w3.org/Graphics/SVG/1.1/DTD/svg11.dtd">
<svg xmlns="http://www.w3.org/2000/svg" xmlns:xlink="http://www.w3.org/1999/xlink" version="1.1" width="40" height="40" viewBox="90 90 400 400" xml:space="preserve">
<desc>Created with Fabric.js 3.6.2</desc>
<defs>
</defs>
<g transform="matrix(0.1 0 0 0.1 200 200)"  >
<path style="stroke: none; stroke-width: 1; stroke-dasharray: none; stroke-linecap: butt; stroke-dashoffset: 0; stroke-linejoin: miter; stroke-miterlimit: 4; fill: rgb(22, 22, 24); fill-rule: nonzero; opacity: 1;"  transform=" translate(-896, -864)" d="M 1792 640 q 0 26 -19 45 l -512 512 q -19 19 -45 19 t -45 -19 t -19 -45 v -256 h -224 q -98 0 -175.5 6 t -154 21.5 t -133 42.5 t -105.5 69.5 t -80 101 t -48.5 138.5 t -17.5 181 q 0 55 5 123 q 0 6 2.5 23.5 t 2.5 26.5 q 0 15 -8.5 25 t -23.5 10 q -16 0 -28 -17 q -7 -9 -13 -22 t -13.5 -30 t -10.5 -24 q -127 -285 -127 -451 q 0 -199 53 -333 q 162 -403 875 -403 h 224 v -256 q 0 -26 19 -45 t 45 -19 t 45 19 l 512 512 q 19 19 19 45 z" stroke-linecap="round" />
</g>
</svg>